<mxfile host="Electron" agent="Mozilla/5.0 (Windows NT 10.0; Win64; x64) AppleWebKit/537.36 (KHTML, like Gecko) draw.io/27.0.9 Chrome/134.0.6998.205 Electron/35.4.0 Safari/537.36" version="27.0.9">
  <diagram id="IjTwH-Po86_Vqoa0VxKK" name="Page-1">
    <mxGraphModel dx="2008" dy="1860" grid="1" gridSize="10" guides="1" tooltips="1" connect="1" arrows="1" fold="1" page="1" pageScale="1" pageWidth="827" pageHeight="1169" background="none" math="0" shadow="0">
      <root>
        <mxCell id="0" />
        <mxCell id="1" parent="0" />
        <mxCell id="Y7qKBM2O2GGH0q0RzG9P-3" value="&lt;font&gt;it.unibas.softwarefirewall.firewallapi&lt;/font&gt;" style="shape=folder;fontStyle=1;tabWidth=190;tabHeight=30;tabPosition=left;html=1;boundedLbl=1;labelInHeader=1;container=1;collapsible=0;recursiveResize=0;whiteSpace=wrap;rounded=1;shadow=0;fillColor=#ffe6cc;strokeColor=#d79b00;fontFamily=Jetbrains Mono;fontSize=6;" parent="1" vertex="1">
          <mxGeometry x="-780" y="-800" width="740" height="240" as="geometry" />
        </mxCell>
        <mxCell id="zuTtKcM1ff-oa4k9CTwb-6" value="" style="group" parent="Y7qKBM2O2GGH0q0RzG9P-3" vertex="1" connectable="0">
          <mxGeometry x="20" y="40" width="671.53" height="209.87000000000006" as="geometry" />
        </mxCell>
        <mxCell id="node4" value="&lt;p style=&quot;margin:0px;margin-top:4px;text-align:center;&quot;&gt;&lt;i&gt;&amp;lt;&amp;lt;enumeration&amp;gt;&amp;gt;&lt;/i&gt;&lt;br&gt;&lt;b&gt;EProtocol&lt;/b&gt;&lt;/p&gt;&lt;hr&gt;&lt;p style=&quot;margin:0 0 0 4px;line-height:1.6;&quot;&gt;+ UDP: &lt;br&gt;+ TCP: &lt;br&gt;+ ICMP: &lt;/p&gt;&lt;hr&gt;&lt;p style=&quot;margin:0 0 0 4px;line-height:1.6;&quot;&gt;+ valueOf(String): EProtocol&lt;br&gt;+ values(): EProtocol[]&lt;/p&gt;" style="verticalAlign=top;align=left;overflow=fill;fontSize=4;fontFamily=Jetbrains Mono;html=1;rounded=1;shadow=0;comic=0;labelBackgroundColor=none;strokeWidth=1;strokeColor=#6c8ebf;arcSize=10;fontColor=default;fillColor=#dae8fc;" parent="zuTtKcM1ff-oa4k9CTwb-6" vertex="1">
          <mxGeometry x="580" y="100" width="91.53" height="60" as="geometry" />
        </mxCell>
        <mxCell id="node12" value="&lt;p style=&quot;margin:0px;margin-top:4px;text-align:center;&quot;&gt;&lt;i&gt;&amp;lt;&amp;lt;enumeration&amp;gt;&amp;gt;&lt;/i&gt;&lt;br&gt;&lt;b&gt;EDirection&lt;/b&gt;&lt;/p&gt;&lt;hr&gt;&lt;p style=&quot;margin:0 0 0 4px;line-height:1.6;&quot;&gt;+ INBOUND: &lt;br&gt;+ OUTBOUND: &lt;/p&gt;&lt;hr&gt;&lt;p style=&quot;margin:0 0 0 4px;line-height:1.6;&quot;&gt;+ valueOf(String): EDirection&lt;br&gt;+ values(): EDirection[]&lt;/p&gt;" style="verticalAlign=top;align=left;overflow=fill;fontSize=4;fontFamily=Jetbrains Mono;html=1;rounded=1;shadow=0;comic=0;labelBackgroundColor=none;strokeWidth=1;strokeColor=#6c8ebf;arcSize=10;fontColor=default;fillColor=#dae8fc;" parent="zuTtKcM1ff-oa4k9CTwb-6" vertex="1">
          <mxGeometry x="580" y="40" width="90" height="50.82" as="geometry" />
        </mxCell>
        <mxCell id="node13" value="&lt;p style=&quot;margin:0px;margin-top:4px;text-align:center;&quot;&gt;&lt;i&gt;&amp;lt;&amp;lt;interface&amp;gt;&amp;gt;&lt;/i&gt;&lt;br&gt;&lt;b&gt;IRange&lt;/b&gt;&lt;/p&gt;&lt;hr&gt;&lt;p style=&quot;margin:0 0 0 4px;line-height:1.6;&quot;&gt;+ contains(T): Boolean&lt;br&gt;+ clone(): Object&lt;/p&gt;" style="verticalAlign=top;align=left;overflow=fill;fontSize=4;fontFamily=Jetbrains Mono;html=1;rounded=1;shadow=0;comic=0;labelBackgroundColor=none;strokeWidth=1;strokeColor=#6c8ebf;arcSize=10;fontColor=default;fillColor=#dae8fc;" parent="zuTtKcM1ff-oa4k9CTwb-6" vertex="1">
          <mxGeometry x="580" width="90" height="31.76" as="geometry" />
        </mxCell>
        <mxCell id="node7" value="&lt;p style=&quot;margin:0px;margin-top:4px;text-align:center;&quot;&gt;&lt;i&gt;&amp;lt;&amp;lt;interface&amp;gt;&amp;gt;&lt;/i&gt;&lt;br&gt;&lt;b&gt;IRuleSet&lt;/b&gt;&lt;/p&gt;&lt;hr&gt;&lt;p style=&quot;margin:0 0 0 4px;line-height:1.6;&quot;&gt;+ setRules(List&amp;lt;IRule&amp;gt;): void&lt;br&gt;+ loadRuleSetFromFile(): void&lt;br&gt;+ addRule(IRule): void&lt;br&gt;+ getRules(): List&amp;lt;IRule&amp;gt;&lt;br&gt;+ matches(IPacket): Boolean&lt;br&gt;+ removeRule(IRule): void&lt;br&gt;+ clone(): Object&lt;/p&gt;" style="verticalAlign=top;align=left;overflow=fill;fontSize=4;fontFamily=Jetbrains Mono;html=1;rounded=1;shadow=0;comic=0;labelBackgroundColor=none;strokeWidth=1;strokeColor=#6c8ebf;arcSize=10;fontColor=default;fillColor=#dae8fc;" parent="zuTtKcM1ff-oa4k9CTwb-6" vertex="1">
          <mxGeometry x="225.69" width="78.24" height="70" as="geometry" />
        </mxCell>
        <mxCell id="node8" value="&lt;p style=&quot;margin:0px;margin-top:4px;text-align:center;&quot;&gt;&lt;i&gt;&amp;lt;&amp;lt;interface&amp;gt;&amp;gt;&lt;/i&gt;&lt;br&gt;&lt;b&gt;IRule&lt;/b&gt;&lt;/p&gt;&lt;hr&gt;&lt;p style=&quot;margin:0 0 0 4px;line-height:1.6;&quot;&gt;+ setDestinationIPRange(IRange&amp;lt;String&amp;gt;): void&lt;br&gt;+ getDestinationPortRange(): IRange&amp;lt;Integer&amp;gt;&lt;br&gt;+ setDirection(EDirection): void&lt;br&gt;+ clone(): Object&lt;br&gt;+ getDestinationIPRange(): IRange&amp;lt;String&amp;gt;&lt;br&gt;+ setDescription(String): void&lt;br&gt;+ setDestinationPortRange(IRange&amp;lt;Integer&amp;gt;): void&lt;br&gt;+ getDirection(): EDirection&lt;br&gt;+ setSourceIPRange(IRange&amp;lt;String&amp;gt;): void&lt;br&gt;+ setProtocol(EProtocol): void&lt;br&gt;+ getSourcePortRange(): IRange&amp;lt;Integer&amp;gt;&lt;br&gt;+ getDescription(): String&lt;br&gt;+ getID(): String&lt;br&gt;+ getSourceIPRange(): IRange&amp;lt;String&amp;gt;&lt;br&gt;+ getProtocol(): EProtocol&lt;br&gt;+ matches(IPacket): Boolean&lt;br&gt;+ setSourcePortRange(IRange&amp;lt;Integer&amp;gt;): void&lt;/p&gt;" style="verticalAlign=top;align=left;overflow=fill;fontSize=4;fontFamily=Jetbrains Mono;html=1;rounded=1;shadow=0;comic=0;labelBackgroundColor=none;strokeWidth=1;strokeColor=#6c8ebf;arcSize=10;fontColor=default;fillColor=#dae8fc;" parent="zuTtKcM1ff-oa4k9CTwb-6" vertex="1">
          <mxGeometry x="328.01" width="126.69" height="130" as="geometry" />
        </mxCell>
        <mxCell id="node5" value="&lt;p style=&quot;margin:0px;margin-top:4px;text-align:center;&quot;&gt;&lt;i&gt;&amp;lt;&amp;lt;interface&amp;gt;&amp;gt;&lt;/i&gt;&lt;br&gt;&lt;b&gt;IRuleSetLoaderStrategy&lt;/b&gt;&lt;/p&gt;&lt;hr&gt;&lt;p style=&quot;margin:0 0 0 4px;line-height:1.6;&quot;&gt;+ load(String): List&amp;lt;IRule&amp;gt;&lt;/p&gt;" style="verticalAlign=top;align=left;overflow=fill;fontSize=4;fontFamily=Jetbrains Mono;html=1;rounded=1;shadow=0;comic=0;labelBackgroundColor=none;strokeWidth=1;strokeColor=#6c8ebf;arcSize=10;fontColor=default;fillColor=#dae8fc;" parent="zuTtKcM1ff-oa4k9CTwb-6" vertex="1">
          <mxGeometry x="478.47" width="91.53" height="30" as="geometry" />
        </mxCell>
        <mxCell id="node10" value="&lt;p style=&quot;margin:0px;margin-top:4px;text-align:center;&quot;&gt;&lt;i&gt;&amp;lt;&amp;lt;enumeration&amp;gt;&amp;gt;&lt;/i&gt;&lt;br&gt;&lt;b&gt;ETypeOfOperation&lt;/b&gt;&lt;/p&gt;&lt;hr&gt;&lt;p style=&quot;margin:0 0 0 4px;line-height:1.6;&quot;&gt;+ ADD: &lt;br&gt;+ REMOVE: &lt;br&gt;+ UPDATE: &lt;/p&gt;&lt;hr&gt;&lt;p style=&quot;margin:0 0 0 4px;line-height:1.6;&quot;&gt;+ values(): ETypeOfOperation[]&lt;br&gt;+ valueOf(String): ETypeOfOperation&lt;/p&gt;" style="verticalAlign=top;align=left;overflow=fill;fontSize=4;fontFamily=Jetbrains Mono;html=1;rounded=1;shadow=0;comic=0;labelBackgroundColor=none;strokeWidth=1;strokeColor=#6c8ebf;arcSize=10;fontColor=default;fillColor=#dae8fc;" parent="zuTtKcM1ff-oa4k9CTwb-6" vertex="1">
          <mxGeometry x="478.47" y="38.120000000000005" width="91.53" height="61.88" as="geometry" />
        </mxCell>
        <mxCell id="node1" value="&lt;p style=&quot;margin:0px;margin-top:4px;text-align:center;&quot;&gt;&lt;i&gt;&amp;lt;&amp;lt;interface&amp;gt;&amp;gt;&lt;/i&gt;&lt;br&gt;&lt;b&gt;IFirewallFacade&lt;/b&gt;&lt;/p&gt;&lt;hr&gt;&lt;p style=&quot;margin:0 0 0 4px;line-height:1.6;&quot;&gt;+ getClonedRuleSetUnderTestRules(): List&amp;lt;IRule&amp;gt;&lt;br&gt;+ updateClonedRuleSetUnderTest(IRule, ETypeOfOperation, Optional&amp;lt;IRule&amp;gt;): void&lt;br&gt;+ getClonedRuleSetUnderTest(): IRuleSet&lt;br&gt;+ getActiveRuleSet(): IRuleSet&lt;br&gt;+ clonedRuleSetUnderTestContainsRule(IRule): Boolean&lt;br&gt;+ getActiveRuleSetRules(): List&amp;lt;IRule&amp;gt;&lt;br&gt;+ activeRuleSetContainsRule(IRule): Boolean&lt;br&gt;+ updateActiveRuleSet(IRule, ETypeOfOperation, Optional&amp;lt;IRule&amp;gt;): void&lt;br&gt;+ clonedRuleSetUnderTestProcessPacket(IPacket): Boolean&lt;br&gt;+ activeRuleSetProcessPacket(IPacket): Boolean&lt;/p&gt;" style="verticalAlign=top;align=left;overflow=fill;fontSize=4;fontFamily=Jetbrains Mono;html=1;rounded=1;shadow=0;comic=0;labelBackgroundColor=none;strokeWidth=1;fillColor=#dae8fc;strokeColor=#6c8ebf;arcSize=10;" parent="zuTtKcM1ff-oa4k9CTwb-6" vertex="1">
          <mxGeometry width="201.62" height="90" as="geometry" />
        </mxCell>
        <mxCell id="node9" value="&lt;p style=&quot;margin:0px;margin-top:4px;text-align:center;&quot;&gt;&lt;i&gt;&amp;lt;&amp;lt;interface&amp;gt;&amp;gt;&lt;/i&gt;&lt;br&gt;&lt;b&gt;ISimulationStatusListener&lt;/b&gt;&lt;/p&gt;&lt;hr&gt;&lt;p style=&quot;margin:0 0 0 4px;line-height:1.6;&quot;&gt;+ onSimulationStarted(): void&lt;br&gt;+ onSimulationFinished(): void&lt;/p&gt;" style="verticalAlign=top;align=left;overflow=fill;fontSize=4;fontFamily=Jetbrains Mono;html=1;rounded=1;shadow=0;comic=0;labelBackgroundColor=none;strokeWidth=1;strokeColor=#6c8ebf;arcSize=10;fontColor=default;fillColor=#dae8fc;" parent="zuTtKcM1ff-oa4k9CTwb-6" vertex="1">
          <mxGeometry y="95.37352941176472" width="81.25" height="34.62352941176471" as="geometry" />
        </mxCell>
        <mxCell id="node2" value="&lt;p style=&quot;margin:0px;margin-top:4px;text-align:center;&quot;&gt;&lt;i&gt;&amp;lt;&amp;lt;interface&amp;gt;&amp;gt;&lt;/i&gt;&lt;br&gt;&lt;b&gt;IPacketLogger&lt;/b&gt;&lt;/p&gt;&lt;hr&gt;&lt;p style=&quot;margin:0 0 0 4px;line-height:1.6;&quot;&gt;+ addPacketLoggerListener(IPacketLoggerListener): void&lt;br&gt;+ getSnapshot(): Queue&amp;lt;IPacketLogEntry&amp;gt;&lt;br&gt;+ cleanupOldEntries(): void&lt;br&gt;+ logPacket(IPacket, Boolean): void&lt;/p&gt;" style="verticalAlign=top;align=left;overflow=fill;fontSize=4;fontFamily=Jetbrains Mono;html=1;rounded=1;shadow=0;comic=0;labelBackgroundColor=none;strokeWidth=1;strokeColor=#6c8ebf;arcSize=10;fontColor=default;fillColor=#dae8fc;" parent="Y7qKBM2O2GGH0q0RzG9P-3" vertex="1">
          <mxGeometry x="20" y="177.45294117647057" width="141.4351851851852" height="47.64705882352942" as="geometry" />
        </mxCell>
        <mxCell id="node6" value="&lt;p style=&quot;margin:0px;margin-top:4px;text-align:center;&quot;&gt;&lt;i&gt;&amp;lt;&amp;lt;interface&amp;gt;&amp;gt;&lt;/i&gt;&lt;br&gt;&lt;b&gt;IPacketLoggerListener&lt;/b&gt;&lt;/p&gt;&lt;hr&gt;&lt;p style=&quot;margin:0 0 0 4px;line-height:1.6;&quot;&gt;+ onNewEntry(): void&lt;/p&gt;" style="verticalAlign=top;align=left;overflow=fill;fontSize=4;fontFamily=Jetbrains Mono;html=1;rounded=1;shadow=0;comic=0;labelBackgroundColor=none;strokeWidth=1;strokeColor=#6c8ebf;arcSize=10;fontColor=default;fillColor=#dae8fc;" parent="Y7qKBM2O2GGH0q0RzG9P-3" vertex="1">
          <mxGeometry x="250.80296296296297" y="177.45294117647057" width="68.00925925925927" height="25.094117647058827" as="geometry" />
        </mxCell>
        <mxCell id="node11" value="&lt;p style=&quot;margin:0px;margin-top:4px;text-align:center;&quot;&gt;&lt;font&gt;&lt;i&gt;&amp;lt;&amp;lt;interface&amp;gt;&amp;gt;&lt;/i&gt;&lt;br&gt;&lt;b&gt;IPacketLogEntry&lt;/b&gt;&lt;/font&gt;&lt;/p&gt;&lt;hr&gt;&lt;p style=&quot;margin:0 0 0 4px;line-height:1.6;&quot;&gt;&lt;font&gt;+ getTimestamp(): Long&lt;br&gt;+ getAllowed(): Boolean&lt;br&gt;+ getPacket(): IPacket&lt;/font&gt;&lt;/p&gt;" style="verticalAlign=top;align=left;overflow=fill;fontSize=4;fontFamily=Jetbrains Mono;html=1;rounded=1;shadow=0;comic=0;labelBackgroundColor=none;strokeWidth=1;strokeColor=#6c8ebf;arcSize=10;fontColor=default;fillColor=#dae8fc;" parent="Y7qKBM2O2GGH0q0RzG9P-3" vertex="1">
          <mxGeometry x="176.4814814814815" y="177.45294117647057" width="63.19444444444444" height="47.64705882352942" as="geometry" />
        </mxCell>
        <mxCell id="node0" value="&lt;p style=&quot;margin:0px;margin-top:4px;text-align:center;&quot;&gt;&lt;i&gt;&amp;lt;&amp;lt;interface&amp;gt;&amp;gt;&lt;/i&gt;&lt;br&gt;&lt;b&gt;IPacket&lt;/b&gt;&lt;/p&gt;&lt;hr&gt;&lt;p style=&quot;margin:0 0 0 4px;line-height:1.6;&quot;&gt;+ getPayload(): String&lt;br&gt;+ toDisplayString(): String&lt;br&gt;+ getHeader(): IHeader&lt;br&gt;+ getID(): String&lt;/p&gt;" style="verticalAlign=top;align=left;overflow=fill;fontSize=4;fontFamily=Jetbrains Mono;html=1;rounded=1;shadow=0;comic=0;labelBackgroundColor=none;strokeWidth=1;strokeColor=#6c8ebf;arcSize=10;fontColor=default;fillColor=#dae8fc;" parent="Y7qKBM2O2GGH0q0RzG9P-3" vertex="1">
          <mxGeometry x="348.01" y="177.45000000000002" width="72.22" height="47.37" as="geometry" />
        </mxCell>
        <mxCell id="node3" value="&lt;p style=&quot;margin:0px;margin-top:4px;text-align:center;&quot;&gt;&lt;font&gt;&lt;i&gt;&amp;lt;&amp;lt;interface&amp;gt;&amp;gt;&lt;/i&gt;&lt;br&gt;&lt;b&gt;IHeader&lt;/b&gt;&lt;/font&gt;&lt;/p&gt;&lt;hr&gt;&lt;p style=&quot;margin:0 0 0 4px;line-height:1.6;&quot;&gt;&lt;font&gt;+ getDestinationIP(): String&lt;br&gt;+ getSourcePort(): Integer&lt;br&gt;+ getSourceIP(): String&lt;br&gt;+ getDestinationPort(): Integer&lt;br&gt;+ getProtocol(): EProtocol&lt;/font&gt;&lt;/p&gt;" style="verticalAlign=top;align=left;overflow=fill;fontSize=4;fontFamily=Jetbrains Mono;html=1;rounded=1;shadow=0;comic=0;labelBackgroundColor=none;strokeWidth=1;strokeColor=#6c8ebf;arcSize=10;fontColor=default;fillColor=#dae8fc;" parent="Y7qKBM2O2GGH0q0RzG9P-3" vertex="1">
          <mxGeometry x="430" y="177.45" width="100" height="52.55" as="geometry" />
        </mxCell>
        <mxCell id="OnnQE_iedf080fl_v-75-1" value="&lt;font&gt;it.unibas.softwarefirewall.firewallgui&lt;/font&gt;" style="shape=folder;fontStyle=1;tabWidth=190;tabHeight=30;tabPosition=left;html=1;boundedLbl=1;labelInHeader=1;container=1;collapsible=0;recursiveResize=0;whiteSpace=wrap;rounded=1;shadow=0;fillColor=#d5e8d4;strokeColor=#82b366;fontFamily=Jetbrains Mono;fontSize=6;" vertex="1" parent="1">
          <mxGeometry x="-780" y="-1120" width="740" height="280" as="geometry" />
        </mxCell>
        <mxCell id="OnnQE_iedf080fl_v-75-17" value="&lt;font&gt;it.unibas.softwarefirewall.firewallcore&lt;/font&gt;" style="shape=folder;fontStyle=1;tabWidth=210;tabHeight=30;tabPosition=left;html=1;boundedLbl=1;labelInHeader=1;container=1;collapsible=0;recursiveResize=0;whiteSpace=wrap;rounded=1;shadow=0;fillColor=#fff2cc;strokeColor=#d6b656;fontFamily=Jetbrains Mono;fontSize=6;" vertex="1" parent="1">
          <mxGeometry x="-780" y="-520" width="500" height="480" as="geometry" />
        </mxCell>
        <mxCell id="OnnQE_iedf080fl_v-75-18" value="&lt;font&gt;it.unibas.softwarefirewall.clientsimulator&lt;/font&gt;" style="shape=folder;fontStyle=1;tabWidth=190;tabHeight=30;tabPosition=left;html=1;boundedLbl=1;labelInHeader=1;container=1;collapsible=0;recursiveResize=0;whiteSpace=wrap;rounded=1;shadow=0;fillColor=#f8cecc;strokeColor=#b85450;fontFamily=Jetbrains Mono;fontSize=6;" vertex="1" parent="1">
          <mxGeometry x="-250" y="-520" width="210" height="480" as="geometry" />
        </mxCell>
      </root>
    </mxGraphModel>
  </diagram>
</mxfile>
